<svg xmlns="http://www.w3.org/2000/svg" viewBox="0 0 24 24" fill="#fff">
    <path d="M12 0C5.373 0 0 5.373 0 12s5.373 12 12 12 12-5.373 12-12S18.627 0 12 0zm.643 19.129c-1.198 0-2.379-.316-3.418-.918l-3.963 1.04.985-3.725c-.649-1.075-1.012-2.316-1.012-3.614 0-3.791 3.087-6.878 6.878-6.878s6.878 3.087 6.878 6.878-3.087 6.878-6.878 6.878zm3.731-4.996c-.207-.115-1.226-.604-1.416-.673s-.328-.103-.466.104c-.138.207-.535.673-.656.812-.121.138-.242.156-.449.052-.207-.103-.874-.322-1.665-1.027-.615-.547-1.03-1.223-1.151-1.43-.121-.207-.013-.319.091-.422.093-.093.207-.243.311-.364.103-.121.138-.207.207-.345.069-.138.035-.259-.017-.364-.052-.103-.466-1.122-.639-1.537-.169-.405-.341-.35-.466-.356-.121-.006-.259-.006-.397-.006-.138 0-.363.052-.553.259-.19.207-.725.708-.725 1.727 0 1.019.743 2.003.847 2.14.104.138 1.47 2.244 3.561 3.145.498.214.887.342 1.189.438.499.159.953.136 1.311.083.4-.06 1.226-.501 1.399-1.001.173-.499.173-.927.121-1.017-.052-.09-.19-.143-.397-.258z"/>
</svg> 