<svg xmlns="http://www.w3.org/2000/svg" viewBox="0 0 24 24" fill="#fff">
    <path d="M12 0C5.373 0 0 5.373 0 12s5.373 12 12 12 12-5.373 12-12S18.627 0 12 0zm6.015 16.5c-.421 1.189-2.089 2.175-3.428 2.463-.893.192-2.062.344-6.002-.838-5.051-1.511-8.301-7.527-8.551-7.877-.241-.334-2.034-2.712-2.034-5.175 0-2.463 1.267-3.675 1.753-4.183.421-.438.91-.513 1.214-.513.293 0 .587 0 .844.024.421.024.991-.167 1.553 1.199.181.439.605 1.511 1.026 2.463.241.513.482 1.026.602 1.265.241.513.241.938.06 1.311-.181.438-.301.564-.602.889-.301.334-.602.589-.903.938-.241.334-.482.696-.181 1.311.301.629 1.329 2.688 2.858 4.35 1.962 2.112 3.619 2.763 4.139 3.049.421.239.91.18 1.214-.12.421-.334.91-.889 1.432-1.432.361-.334.813-.473 1.294-.239.482.239 3.038 1.432 3.559 1.686.482.239.813.359.933.564.12.18.12 1.026-.301 2.024z"/>
</svg> 